<svg xmlns="http://www.w3.org/2000/svg" viewBox="0 0 512 512" width="512" height="512">
  <defs>
    <mask id="m">
      <rect width="512" height="512" fill="white"/>
      <g transform="translate(0,512) scale(0.03413,-0.03413)" fill="black">
        <path d="M8255 12065 c-476 -68 -847 -251 -1156 -572 -322 -335 -538 -776 -647 -1323 -61 -302 -82 -567 -82 -1027 l0 -292 -427 -3 c-488 -4 -494 -5 -528 -73 -29 -60 -28 -215 2 -270 28 -52 62 -83 104 -95 19 -6 206 -10 441 -10 l408 0 0 -1962 c-1 -1145 -5 -2007 -10 -2068 -8 -89 -15 -116 -45 -176 -84 -170 -203 -229 -489 -240 -172 -7 -249 -20 -274 -47 -63 -69 -53 -271 17 -346 45 -48 77 -51 324 -33 313 24 1902 24 2261 0 251 -16 282 -14 322 23 71 67 88 272 29 353 -21 27 -115 46 -240 46 -147 0 -380 18 -470 35 -184 35 -284 137 -320 326 -31 164 -35 417 -35 2251 l0 1838 658 2 659 3 36 27 c51 40 89 123 89 195 0 65 -16 134 -38 168 -30 46 -59 48 -749 54 l-650 6 2 605 c3 768 16 951 94 1327 95 456 300 758 586 863 112 40 210 53 360 48 206 -8 322 -58 469 -203 136 -134 196 -291 180 -473 -17 -206 -104 -366 -295 -542 -68 -63 -101 -101 -101 -115 0 -50 138 -198 221 -239 90 -43 172 -59 299 -59 312 1 520 137 661 430 62 130 90 245 96 403 11 274 -54 459 -230 661 -208 238 -516 407 -881 485 -104 22 -152 26 -336 30 -149 2 -245 -1 -315 -11z"/>
      </g>
    </mask>
  </defs>
  <circle cx="256" cy="256" r="256" fill="#E02725" mask="url(#m)"/>
</svg>